<svg width="24" height="24" viewBox="0 0 24 24" fill="none" xmlns="http://www.w3.org/2000/svg">
<path d="M16.3222 14.3954L16.7578 13.9599L15.6971 12.8992L15.2616 13.3348L16.3222 14.3954ZM18.1812 13.7824L20.0105 14.7815L20.7296 13.4656L18.9003 12.4665L18.1812 13.7824ZM20.3541 16.7275L18.9944 18.0873L20.055 19.1479L21.4148 17.7881L20.3541 16.7275ZM18.1869 18.5158C16.808 18.6445 13.2286 18.5313 9.34873 14.6514L8.28807 15.7121C12.5378 19.9618 16.586 20.1718 18.3269 20.0092L18.1869 18.5158ZM9.34873 14.6514C5.64844 10.9511 5.03679 7.84057 4.96113 6.49494L3.46348 6.57838C3.55964 8.28675 4.32191 11.7459 8.28807 15.7121L9.34873 14.6514ZM10.6654 8.73859L10.9397 8.46424L9.87906 7.40358L9.6047 7.67793L10.6654 8.73859ZM11.161 4.93082L9.95401 3.30943L8.75052 4.20604L9.95755 5.82744L11.161 4.93082ZM5.8436 2.95375L4.341 4.45635L5.40166 5.51701L6.90426 4.01441L5.8436 2.95375ZM10.135 8.20826C9.6047 7.67793 9.60399 7.67864 9.60329 7.67935L9.59197 7.69066C9.57639 7.70673 9.56153 7.72349 9.54742 7.74087C9.44865 7.86465 9.37013 8.00332 9.31479 8.15169C9.19674 8.48615 9.16726 8.84546 9.22923 9.19468C9.35863 10.0354 9.93351 11.1406 11.3965 12.6036L12.4572 11.543C11.0925 10.1783 10.7707 9.35024 10.7113 8.96557C10.6837 8.78243 10.7127 8.69546 10.7198 8.67707C10.7233 8.66647 10.7248 8.66647 10.7177 8.67778C10.7056 8.69597 10.6916 8.7128 10.676 8.72799L10.6668 8.73718C10.6661 8.73789 10.6654 8.73859 10.135 8.20826ZM11.3965 12.6036C12.8602 14.0673 13.9647 14.6415 14.8055 14.7709C15.2354 14.8374 15.5833 14.7851 15.8485 14.6854C15.9968 14.63 16.1355 14.5515 16.2593 14.4527C16.2765 14.4384 16.2933 14.4236 16.3095 14.4082L16.3208 14.3969C16.3208 14.3969 16.3222 14.3954 15.7919 13.8651C15.2616 13.3348 15.2616 13.3348 15.263 13.3334L15.2672 13.3291C15.2849 13.3128 15.3033 13.2972 15.3224 13.2825C15.3337 13.2754 15.3337 13.2768 15.3224 13.281C15.2285 13.307 15.1297 13.3096 15.0346 13.2888C14.6499 13.2294 13.8226 12.9084 12.4572 11.543L11.3965 12.6036ZM9.95401 3.30943C8.9683 1.98431 7.02447 1.77288 5.8436 2.95375L6.90426 4.01441C7.39782 3.52085 8.27746 3.56752 8.75052 4.20463L9.95401 3.30943ZM4.96113 6.49494C4.94345 6.17038 5.09053 5.82814 5.40166 5.51701L4.341 4.45635C3.82269 4.97466 3.41327 5.70935 3.46348 6.57838L4.96113 6.49494ZM18.9944 18.0873C18.7349 18.3468 18.4605 18.4896 18.1869 18.5158L18.3269 20.0092C19.0403 19.942 19.623 19.58 20.055 19.1479L18.9944 18.0873ZM10.9397 8.46424C11.8922 7.51176 11.9622 6.00775 11.161 4.93082L9.95755 5.82744C10.3366 6.33655 10.2793 7.00335 9.87906 7.40358L10.9397 8.46424ZM20.0091 14.7815C20.7749 15.2008 20.8944 16.1873 20.3541 16.7275L21.4148 17.7881C22.7109 16.492 22.3121 14.3311 20.7296 13.467L20.0091 14.7815ZM16.7578 13.9599C17.1149 13.6028 17.6891 13.5137 18.1812 13.7824L18.9003 12.4665C17.8489 11.893 16.5457 12.0507 15.6971 12.8992L16.7578 13.9599Z" fill="#29343D"/>
</svg>
