<svg width="24" height="24" viewBox="0 0 24 24" fill="none" xmlns="http://www.w3.org/2000/svg">
<path d="M18.8957 12.3714L11.5127 19.7544C9.59443 21.6829 7.01271 21.4918 5.36571 19.8247C3.70843 18.1772 3.51728 15.6161 5.44586 13.6875L15.5104 3.62252C16.6659 2.46752 18.3634 2.3068 19.4683 3.4018C20.5633 4.51652 20.4026 6.20423 19.2574 7.35923L9.42343 17.2027C8.92157 17.7148 8.32886 17.5639 7.977 17.2228C7.63586 16.8714 7.49486 16.2885 7.99714 15.7759L14.8676 8.9158C15.1693 8.60423 15.189 8.16237 14.8976 7.87094C14.6066 7.5898 14.1647 7.60952 13.8634 7.91123L6.96257 14.8125C5.93828 15.8368 5.97814 17.4037 6.88243 18.3079C7.86686 19.2924 9.36343 19.2722 10.3881 18.2377L20.2817 8.35352C22.1601 6.47509 22.0697 4.00437 20.4424 2.3668C18.8353 0.769944 16.3341 0.649515 14.4459 2.52752L4.32086 12.6628C1.83986 15.1438 2.03057 18.6894 4.27071 20.9295C6.51086 23.1594 10.0564 23.3501 12.5374 20.8794L19.9706 13.4462C20.2719 13.1548 20.262 12.6225 19.9603 12.3512C19.6689 12.0401 19.1974 12.0799 18.8957 12.3714Z" fill="#29343D"/>
</svg>
