<svg width="24" height="24" viewBox="0 0 34 34" fill="none" xmlns="http://www.w3.org/2000/svg">
<path d="M26.5625 12.4844H12.4819V7.02379C12.4819 4.6155 14.5076 2.65625 16.9975 2.65625C19.4874 2.65625 21.5132 4.6155 21.5132 7.02379V9.5625H24.1694V7.02379C24.1694 3.15084 20.9521 0 16.9975 0C13.043 0 9.82567 3.15084 9.82567 7.02379V12.4844H7.4375C5.24052 12.4844 3.45312 14.2718 3.45312 16.4688V30.0156C3.45312 32.2126 5.24052 34 7.4375 34H26.5625C28.7595 34 30.5469 32.2126 30.5469 30.0156V16.4688C30.5469 14.2718 28.7595 12.4844 26.5625 12.4844ZM27.8906 30.0156C27.8906 30.748 27.2948 31.3438 26.5625 31.3438H7.4375C6.70517 31.3438 6.10938 30.748 6.10938 30.0156V16.4688C6.10938 15.7364 6.70517 15.1406 7.4375 15.1406H26.5625C27.2948 15.1406 27.8906 15.7364 27.8906 16.4688V30.0156Z" fill="#575CD4"/>
<path d="M17 18.9922C15.643 18.9922 14.543 20.0922 14.543 21.4492C14.543 22.3157 14.9919 23.0768 15.6694 23.5143V26.4297C15.6694 27.1631 16.264 27.7578 16.9975 27.7578C17.731 27.7578 18.3257 27.1631 18.3257 26.4297V23.5174C19.0059 23.0805 19.457 22.3178 19.457 21.4492C19.457 20.0922 18.357 18.9922 17 18.9922Z" fill="#575CD4"/>
</svg>