<svg width="292" height="68" viewBox="0 0 292 68" fill="none" xmlns="http://www.w3.org/2000/svg">
<g filter="url(#filter0_d_17401_508)">
<path d="M12 16C12 9.37258 17.3726 4 24 4H268C274.627 4 280 9.37258 280 16V36C280 42.6274 274.627 48 268 48H24C17.3726 48 12 42.6274 12 36V16Z" fill="#635BFF" shape-rendering="crispEdges"/>
<path d="M32.1667 26H30.5L38 18.5L45.5 26H43.8333" stroke="white" stroke-width="1.5" stroke-linecap="round" stroke-linejoin="round"/>
<path d="M32.1667 26V31.8333C32.1667 32.2754 32.3423 32.6993 32.6549 33.0118C32.9675 33.3244 33.3914 33.5 33.8334 33.5H42.1667C42.6088 33.5 43.0327 33.3244 43.3453 33.0118C43.6578 32.6993 43.8334 32.2754 43.8334 31.8333V26" stroke="white" stroke-width="1.5" stroke-linecap="round" stroke-linejoin="round"/>
<path d="M35.5 33.5002V28.5002C35.5 28.0581 35.6756 27.6342 35.9882 27.3217C36.3007 27.0091 36.7246 26.8335 37.1667 26.8335H38.8333C39.2754 26.8335 39.6993 27.0091 40.0118 27.3217C40.3244 27.6342 40.5 28.0581 40.5 28.5002V33.5002" stroke="white" stroke-width="1.5" stroke-linecap="round" stroke-linejoin="round"/>
<path d="M59.05 32V21.2H62.4325C62.5325 21.2 62.7175 21.2025 62.9875 21.2075C63.2625 21.2125 63.525 21.2325 63.775 21.2675C64.62 21.3725 65.33 21.675 65.905 22.175C66.485 22.675 66.9225 23.31 67.2175 24.08C67.5125 24.845 67.66 25.685 67.66 26.6C67.66 27.52 67.5125 28.365 67.2175 29.135C66.9225 29.9 66.485 30.5325 65.905 31.0325C65.33 31.5275 64.62 31.8275 63.775 31.9325C63.525 31.9675 63.2625 31.9875 62.9875 31.9925C62.7175 31.9975 62.5325 32 62.4325 32H59.05ZM60.655 30.5075H62.4325C62.6025 30.5075 62.805 30.5025 63.04 30.4925C63.275 30.4825 63.4825 30.4625 63.6625 30.4325C64.2125 30.3275 64.6575 30.09 64.9975 29.72C65.3425 29.345 65.595 28.885 65.755 28.34C65.915 27.795 65.995 27.215 65.995 26.6C65.995 25.965 65.9125 25.3775 65.7475 24.8375C65.5825 24.2925 65.3275 23.8375 64.9825 23.4725C64.6425 23.1025 64.2025 22.8675 63.6625 22.7675C63.4825 22.7325 63.2725 22.7125 63.0325 22.7075C62.7975 22.6975 62.5975 22.6925 62.4325 22.6925H60.655V30.5075ZM71.6939 32.225C71.0939 32.225 70.5914 32.115 70.1864 31.895C69.7814 31.67 69.4739 31.375 69.2639 31.01C69.0589 30.64 68.9564 30.235 68.9564 29.795C68.9564 29.385 69.0289 29.025 69.1739 28.715C69.3189 28.405 69.5339 28.1425 69.8189 27.9275C70.1039 27.7075 70.4539 27.53 70.8689 27.395C71.2289 27.29 71.6364 27.1975 72.0914 27.1175C72.5464 27.0375 73.0239 26.9625 73.5239 26.8925C74.0289 26.8225 74.5289 26.7525 75.0239 26.6825L74.4539 26.9975C74.4639 26.3625 74.3289 25.8925 74.0489 25.5875C73.7739 25.2775 73.2989 25.1225 72.6239 25.1225C72.1989 25.1225 71.8089 25.2225 71.4539 25.4225C71.0989 25.6175 70.8514 25.9425 70.7114 26.3975L69.2489 25.9475C69.4489 25.2525 69.8289 24.7 70.3889 24.29C70.9539 23.88 71.7039 23.675 72.6389 23.675C73.3639 23.675 73.9939 23.8 74.5289 24.05C75.0689 24.295 75.4639 24.685 75.7139 25.22C75.8439 25.485 75.9239 25.765 75.9539 26.06C75.9839 26.355 75.9989 26.6725 75.9989 27.0125V32H74.6114V30.1475L74.8814 30.3875C74.5464 31.0075 74.1189 31.47 73.5989 31.775C73.0839 32.075 72.4489 32.225 71.6939 32.225ZM71.9714 30.9425C72.4164 30.9425 72.7989 30.865 73.1189 30.71C73.4389 30.55 73.6964 30.3475 73.8914 30.1025C74.0864 29.8575 74.2139 29.6025 74.2739 29.3375C74.3589 29.0975 74.4064 28.8275 74.4164 28.5275C74.4314 28.2275 74.4389 27.9875 74.4389 27.8075L74.9489 27.995C74.4539 28.07 74.0039 28.1375 73.5989 28.1975C73.1939 28.2575 72.8264 28.3175 72.4964 28.3775C72.1714 28.4325 71.8814 28.5 71.6264 28.58C71.4114 28.655 71.2189 28.745 71.0489 28.85C70.8839 28.955 70.7514 29.0825 70.6514 29.2325C70.5564 29.3825 70.5089 29.565 70.5089 29.78C70.5089 29.99 70.5614 30.185 70.6664 30.365C70.7714 30.54 70.9314 30.68 71.1464 30.785C71.3614 30.89 71.6364 30.9425 71.9714 30.9425ZM81.044 32.2175C80.059 32.2175 79.2565 32 78.6365 31.565C78.0165 31.13 77.6365 30.5175 77.4965 29.7275L79.1015 29.48C79.2015 29.9 79.4315 30.2325 79.7915 30.4775C80.1565 30.7175 80.609 30.8375 81.149 30.8375C81.639 30.8375 82.0215 30.7375 82.2965 30.5375C82.5765 30.3375 82.7165 30.0625 82.7165 29.7125C82.7165 29.5075 82.6665 29.3425 82.5665 29.2175C82.4715 29.0875 82.269 28.965 81.959 28.85C81.649 28.735 81.1765 28.5925 80.5415 28.4225C79.8465 28.2425 79.294 28.05 78.884 27.845C78.479 27.635 78.189 27.3925 78.014 27.1175C77.844 26.8375 77.759 26.5 77.759 26.105C77.759 25.615 77.889 25.1875 78.149 24.8225C78.409 24.4575 78.774 24.175 79.244 23.975C79.719 23.775 80.274 23.675 80.909 23.675C81.529 23.675 82.0815 23.7725 82.5665 23.9675C83.0515 24.1625 83.444 24.44 83.744 24.8C84.044 25.155 84.224 25.5725 84.284 26.0525L82.679 26.345C82.624 25.955 82.4415 25.6475 82.1315 25.4225C81.8215 25.1975 81.419 25.075 80.924 25.055C80.449 25.035 80.064 25.115 79.769 25.295C79.474 25.47 79.3265 25.7125 79.3265 26.0225C79.3265 26.2025 79.3815 26.355 79.4915 26.48C79.6065 26.605 79.8265 26.725 80.1515 26.84C80.4765 26.955 80.9565 27.0925 81.5915 27.2525C82.2715 27.4275 82.8115 27.6225 83.2115 27.8375C83.6115 28.0475 83.8965 28.3 84.0665 28.595C84.2415 28.885 84.329 29.2375 84.329 29.6525C84.329 30.4525 84.0365 31.08 83.4515 31.535C82.8715 31.99 82.069 32.2175 81.044 32.2175ZM91.6735 32V28.0175C91.6735 27.7025 91.646 27.38 91.591 27.05C91.541 26.715 91.441 26.405 91.291 26.12C91.146 25.835 90.9385 25.605 90.6685 25.43C90.4035 25.255 90.056 25.1675 89.626 25.1675C89.346 25.1675 89.081 25.215 88.831 25.31C88.581 25.4 88.361 25.5475 88.171 25.7525C87.986 25.9575 87.8385 26.2275 87.7285 26.5625C87.6235 26.8975 87.571 27.305 87.571 27.785L86.596 27.4175C86.596 26.6825 86.7335 26.035 87.0085 25.475C87.2835 24.91 87.6785 24.47 88.1935 24.155C88.7085 23.84 89.331 23.6825 90.061 23.6825C90.621 23.6825 91.091 23.7725 91.471 23.9525C91.851 24.1325 92.1585 24.37 92.3935 24.665C92.6335 24.955 92.816 25.2725 92.941 25.6175C93.066 25.9625 93.151 26.3 93.196 26.63C93.241 26.96 93.2635 27.25 93.2635 27.5V32H91.6735ZM85.981 32V21.2H87.3835V27.0275H87.571V32H85.981ZM99.0195 32.225C98.2445 32.225 97.5945 32.0375 97.0695 31.6625C96.5445 31.2825 96.147 30.77 95.877 30.125C95.607 29.48 95.472 28.7525 95.472 27.9425C95.472 27.1325 95.6045 26.405 95.8695 25.76C96.1395 25.115 96.5345 24.6075 97.0545 24.2375C97.5795 23.8625 98.2245 23.675 98.9895 23.675C99.7495 23.675 100.404 23.8625 100.954 24.2375C101.509 24.6075 101.937 25.115 102.237 25.76C102.537 26.4 102.687 27.1275 102.687 27.9425C102.687 28.7525 102.537 29.4825 102.237 30.1325C101.942 30.7775 101.519 31.2875 100.969 31.6625C100.424 32.0375 99.7745 32.225 99.0195 32.225ZM95.2095 32V21.2H96.7845V26.1725H96.6045V32H95.2095ZM98.802 30.8075C99.302 30.8075 99.7145 30.68 100.039 30.425C100.369 30.17 100.614 29.8275 100.774 29.3975C100.939 28.9625 101.022 28.4775 101.022 27.9425C101.022 27.4125 100.939 26.9325 100.774 26.5025C100.614 26.0725 100.367 25.73 100.032 25.475C99.697 25.22 99.2695 25.0925 98.7495 25.0925C98.2595 25.0925 97.8545 25.2125 97.5345 25.4525C97.2195 25.6925 96.9845 26.0275 96.8295 26.4575C96.6795 26.8875 96.6045 27.3825 96.6045 27.9425C96.6045 28.5025 96.6795 28.9975 96.8295 29.4275C96.9795 29.8575 97.217 30.195 97.542 30.44C97.867 30.685 98.287 30.8075 98.802 30.8075ZM107.86 32.225C107.05 32.225 106.348 32.0425 105.753 31.6775C105.158 31.3125 104.698 30.81 104.373 30.17C104.053 29.525 103.893 28.7825 103.893 27.9425C103.893 27.0975 104.058 26.355 104.388 25.715C104.718 25.07 105.18 24.57 105.775 24.215C106.37 23.855 107.065 23.675 107.86 23.675C108.67 23.675 109.373 23.8575 109.968 24.2225C110.563 24.5875 111.023 25.09 111.348 25.73C111.673 26.37 111.835 27.1075 111.835 27.9425C111.835 28.7875 111.67 29.5325 111.34 30.1775C111.015 30.8175 110.555 31.32 109.96 31.685C109.365 32.045 108.665 32.225 107.86 32.225ZM107.86 30.7475C108.635 30.7475 109.213 30.4875 109.593 29.9675C109.978 29.4425 110.17 28.7675 110.17 27.9425C110.17 27.0975 109.975 26.4225 109.585 25.9175C109.2 25.4075 108.625 25.1525 107.86 25.1525C107.335 25.1525 106.903 25.2725 106.563 25.5125C106.223 25.7475 105.97 26.075 105.805 26.495C105.64 26.91 105.558 27.3925 105.558 27.9425C105.558 28.7925 105.753 29.4725 106.143 29.9825C106.533 30.4925 107.105 30.7475 107.86 30.7475ZM115.771 32.225C115.171 32.225 114.669 32.115 114.264 31.895C113.859 31.67 113.551 31.375 113.341 31.01C113.136 30.64 113.034 30.235 113.034 29.795C113.034 29.385 113.106 29.025 113.251 28.715C113.396 28.405 113.611 28.1425 113.896 27.9275C114.181 27.7075 114.531 27.53 114.946 27.395C115.306 27.29 115.714 27.1975 116.169 27.1175C116.624 27.0375 117.101 26.9625 117.601 26.8925C118.106 26.8225 118.606 26.7525 119.101 26.6825L118.531 26.9975C118.541 26.3625 118.406 25.8925 118.126 25.5875C117.851 25.2775 117.376 25.1225 116.701 25.1225C116.276 25.1225 115.886 25.2225 115.531 25.4225C115.176 25.6175 114.929 25.9425 114.789 26.3975L113.326 25.9475C113.526 25.2525 113.906 24.7 114.466 24.29C115.031 23.88 115.781 23.675 116.716 23.675C117.441 23.675 118.071 23.8 118.606 24.05C119.146 24.295 119.541 24.685 119.791 25.22C119.921 25.485 120.001 25.765 120.031 26.06C120.061 26.355 120.076 26.6725 120.076 27.0125V32H118.689V30.1475L118.959 30.3875C118.624 31.0075 118.196 31.47 117.676 31.775C117.161 32.075 116.526 32.225 115.771 32.225ZM116.049 30.9425C116.494 30.9425 116.876 30.865 117.196 30.71C117.516 30.55 117.774 30.3475 117.969 30.1025C118.164 29.8575 118.291 29.6025 118.351 29.3375C118.436 29.0975 118.484 28.8275 118.494 28.5275C118.509 28.2275 118.516 27.9875 118.516 27.8075L119.026 27.995C118.531 28.07 118.081 28.1375 117.676 28.1975C117.271 28.2575 116.904 28.3175 116.574 28.3775C116.249 28.4325 115.959 28.5 115.704 28.58C115.489 28.655 115.296 28.745 115.126 28.85C114.961 28.955 114.829 29.0825 114.729 29.2325C114.634 29.3825 114.586 29.565 114.586 29.78C114.586 29.99 114.639 30.185 114.744 30.365C114.849 30.54 115.009 30.68 115.224 30.785C115.439 30.89 115.714 30.9425 116.049 30.9425ZM122.024 32V23.9H123.419V25.865L123.224 25.61C123.324 25.35 123.454 25.1125 123.614 24.8975C123.774 24.6775 123.959 24.4975 124.169 24.3575C124.374 24.2075 124.601 24.0925 124.851 24.0125C125.106 23.9275 125.366 23.8775 125.631 23.8625C125.896 23.8425 126.151 23.855 126.396 23.9V25.37C126.131 25.3 125.836 25.28 125.511 25.31C125.191 25.34 124.896 25.4425 124.626 25.6175C124.371 25.7825 124.169 25.9825 124.019 26.2175C123.874 26.4525 123.769 26.715 123.704 27.005C123.639 27.29 123.606 27.5925 123.606 27.9125V32H122.024ZM130.895 32.225C130.14 32.225 129.488 32.0375 128.938 31.6625C128.393 31.2875 127.97 30.7775 127.67 30.1325C127.375 29.4825 127.228 28.7525 127.228 27.9425C127.228 27.1275 127.378 26.4 127.678 25.76C127.978 25.115 128.403 24.6075 128.953 24.2375C129.508 23.8625 130.165 23.675 130.925 23.675C131.69 23.675 132.333 23.8625 132.853 24.2375C133.378 24.6075 133.773 25.115 134.038 25.76C134.308 26.405 134.443 27.1325 134.443 27.9425C134.443 28.7525 134.308 29.48 134.038 30.125C133.768 30.77 133.37 31.2825 132.845 31.6625C132.32 32.0375 131.67 32.225 130.895 32.225ZM131.113 30.8075C131.628 30.8075 132.048 30.685 132.373 30.44C132.698 30.195 132.935 29.8575 133.085 29.4275C133.235 28.9975 133.31 28.5025 133.31 27.9425C133.31 27.3825 133.233 26.8875 133.078 26.4575C132.928 26.0275 132.693 25.6925 132.373 25.4525C132.058 25.2125 131.655 25.0925 131.165 25.0925C130.645 25.0925 130.218 25.22 129.883 25.475C129.548 25.73 129.298 26.0725 129.133 26.5025C128.973 26.9325 128.893 27.4125 128.893 27.9425C128.893 28.4775 128.973 28.9625 129.133 29.3975C129.298 29.8275 129.543 30.17 129.868 30.425C130.198 30.68 130.613 30.8075 131.113 30.8075ZM133.31 32V26.1725H133.13V21.2H134.705V32H133.31Z" fill="white"/>
</g>
<defs>
<filter id="filter0_d_17401_508" x="0" y="0" width="292" height="68" filterUnits="userSpaceOnUse" color-interpolation-filters="sRGB">
<feFlood flood-opacity="0" result="BackgroundImageFix"/>
<feColorMatrix in="SourceAlpha" type="matrix" values="0 0 0 0 0 0 0 0 0 0 0 0 0 0 0 0 0 0 127 0" result="hardAlpha"/>
<feMorphology radius="8" operator="erode" in="SourceAlpha" result="effect1_dropShadow_17401_508"/>
<feOffset dy="8"/>
<feGaussianBlur stdDeviation="10"/>
<feComposite in2="hardAlpha" operator="out"/>
<feColorMatrix type="matrix" values="0 0 0 0 0.301961 0 0 0 0 0.356863 0 0 0 0 0.92549 0 0 0 0.23 0"/>
<feBlend mode="normal" in2="BackgroundImageFix" result="effect1_dropShadow_17401_508"/>
<feBlend mode="normal" in="SourceGraphic" in2="effect1_dropShadow_17401_508" result="shape"/>
</filter>
</defs>
</svg>
