<svg width="20" height="20" viewBox="0 0 20 20" fill="none" xmlns="http://www.w3.org/2000/svg">
<g clip-path="url(#clip0_17401_534)">
<path d="M3.33337 14.1667C3.33337 14.6087 3.50897 15.0326 3.82153 15.3452C4.13409 15.6577 4.55801 15.8333 5.00004 15.8333C5.44207 15.8333 5.86599 15.6577 6.17855 15.3452C6.49111 15.0326 6.66671 14.6087 6.66671 14.1667C6.66671 13.7246 6.49111 13.3007 6.17855 12.9882C5.86599 12.6756 5.44207 12.5 5.00004 12.5C4.55801 12.5 4.13409 12.6756 3.82153 12.9882C3.50897 13.3007 3.33337 13.7246 3.33337 14.1667Z" stroke="#98A4AE" stroke-width="1.5" stroke-linecap="round" stroke-linejoin="round"/>
<path d="M13.3334 14.1667C13.3334 14.6087 13.509 15.0326 13.8215 15.3452C14.1341 15.6577 14.558 15.8333 15 15.8333C15.4421 15.8333 15.866 15.6577 16.1786 15.3452C16.4911 15.0326 16.6667 14.6087 16.6667 14.1667C16.6667 13.7246 16.4911 13.3007 16.1786 12.9882C15.866 12.6756 15.4421 12.5 15 12.5C14.558 12.5 14.1341 12.6756 13.8215 12.9882C13.509 13.3007 13.3334 13.7246 13.3334 14.1667Z" stroke="#98A4AE" stroke-width="1.5" stroke-linecap="round" stroke-linejoin="round"/>
<path d="M3.33329 14.1665H1.66663V4.99984C1.66663 4.77882 1.75442 4.56686 1.9107 4.41058C2.06698 4.2543 2.27895 4.1665 2.49996 4.1665H14.1666C15.2717 4.1665 16.3315 4.78109 17.1129 5.87505C17.8943 6.96901 18.3333 8.45274 18.3333 9.99984V14.1665H16.6666M13.3333 14.1665H6.66663" stroke="#98A4AE" stroke-width="1.5" stroke-linecap="round" stroke-linejoin="round"/>
<path d="M13.3334 4.1665L14.5834 9.99984H18.3334" stroke="#98A4AE" stroke-width="1.5" stroke-linecap="round" stroke-linejoin="round"/>
<path d="M1.66663 8.3335H14.1666" stroke="#98A4AE" stroke-width="1.5" stroke-linecap="round" stroke-linejoin="round"/>
<path d="M5.83337 4.1665V8.33317" stroke="#98A4AE" stroke-width="1.5" stroke-linecap="round" stroke-linejoin="round"/>
<path d="M10 4.1665V8.33317" stroke="#98A4AE" stroke-width="1.5" stroke-linecap="round" stroke-linejoin="round"/>
</g>
<defs>
<clipPath id="clip0_17401_534">
<rect width="20" height="20" fill="white"/>
</clipPath>
</defs>
</svg>
