<svg width="20" height="20" viewBox="0 0 20 20" fill="none" xmlns="http://www.w3.org/2000/svg">
<g clip-path="url(#clip0_17401_545)">
<path d="M7.49996 4.1665H5.83329C5.39127 4.1665 4.96734 4.3421 4.65478 4.65466C4.34222 4.96722 4.16663 5.39114 4.16663 5.83317V15.8332C4.16663 16.2752 4.34222 16.6991 4.65478 17.0117C4.96734 17.3242 5.39127 17.4998 5.83329 17.4998H14.1666C14.6087 17.4998 15.0326 17.3242 15.3451 17.0117C15.6577 16.6991 15.8333 16.2752 15.8333 15.8332V5.83317C15.8333 5.39114 15.6577 4.96722 15.3451 4.65466C15.0326 4.3421 14.6087 4.1665 14.1666 4.1665H12.5" stroke="#98A4AE" stroke-width="1.5" stroke-linecap="round" stroke-linejoin="round"/>
<path d="M7.5 4.16667C7.5 3.72464 7.6756 3.30072 7.98816 2.98816C8.30072 2.67559 8.72464 2.5 9.16667 2.5H10.8333C11.2754 2.5 11.6993 2.67559 12.0118 2.98816C12.3244 3.30072 12.5 3.72464 12.5 4.16667C12.5 4.60869 12.3244 5.03262 12.0118 5.34518C11.6993 5.65774 11.2754 5.83333 10.8333 5.83333H9.16667C8.72464 5.83333 8.30072 5.65774 7.98816 5.34518C7.6756 5.03262 7.5 4.60869 7.5 4.16667Z" stroke="#98A4AE" stroke-width="1.5" stroke-linecap="round" stroke-linejoin="round"/>
<path d="M7.5 10H7.50833" stroke="#98A4AE" stroke-width="1.5" stroke-linecap="round" stroke-linejoin="round"/>
<path d="M10.8334 10H12.5" stroke="#98A4AE" stroke-width="1.5" stroke-linecap="round" stroke-linejoin="round"/>
<path d="M7.5 13.3335H7.50833" stroke="#98A4AE" stroke-width="1.5" stroke-linecap="round" stroke-linejoin="round"/>
<path d="M10.8334 13.3335H12.5" stroke="#98A4AE" stroke-width="1.5" stroke-linecap="round" stroke-linejoin="round"/>
</g>
<defs>
<clipPath id="clip0_17401_545">
<rect width="20" height="20" fill="white"/>
</clipPath>
</defs>
</svg>
