<svg width="20" height="20" viewBox="0 0 20 20" fill="none" xmlns="http://www.w3.org/2000/svg">
<g clip-path="url(#clip0_17401_604)">
<path d="M3.33337 5.00016C3.33337 4.55814 3.50897 4.13421 3.82153 3.82165C4.13409 3.50909 4.55801 3.3335 5.00004 3.3335H15C15.4421 3.3335 15.866 3.50909 16.1786 3.82165C16.4911 4.13421 16.6667 4.55814 16.6667 5.00016V15.0002C16.6667 15.4422 16.4911 15.8661 16.1786 16.1787C15.866 16.4912 15.4421 16.6668 15 16.6668H5.00004C4.55801 16.6668 4.13409 16.4912 3.82153 16.1787C3.50897 15.8661 3.33337 15.4422 3.33337 15.0002V5.00016Z" stroke="#98A4AE" stroke-width="1.5" stroke-linecap="round" stroke-linejoin="round"/>
<path d="M6.66663 3.3335V16.6668" stroke="#98A4AE" stroke-width="1.5" stroke-linecap="round" stroke-linejoin="round"/>
<path d="M13.3334 3.3335V16.6668" stroke="#98A4AE" stroke-width="1.5" stroke-linecap="round" stroke-linejoin="round"/>
<path d="M3.33337 6.6665H6.66671" stroke="#98A4AE" stroke-width="1.5" stroke-linecap="round" stroke-linejoin="round"/>
<path d="M3.33337 13.3335H6.66671" stroke="#98A4AE" stroke-width="1.5" stroke-linecap="round" stroke-linejoin="round"/>
<path d="M3.33337 10H16.6667" stroke="#98A4AE" stroke-width="1.5" stroke-linecap="round" stroke-linejoin="round"/>
<path d="M13.3334 6.6665H16.6667" stroke="#98A4AE" stroke-width="1.5" stroke-linecap="round" stroke-linejoin="round"/>
<path d="M13.3334 13.3335H16.6667" stroke="#98A4AE" stroke-width="1.5" stroke-linecap="round" stroke-linejoin="round"/>
</g>
<defs>
<clipPath id="clip0_17401_604">
<rect width="20" height="20" fill="white"/>
</clipPath>
</defs>
</svg>
