<svg width="20" height="20" viewBox="0 0 20 20" fill="none" xmlns="http://www.w3.org/2000/svg">
<path opacity="0.5" d="M1.66666 10.1698C1.66666 8.26234 1.66666 7.309 2.09999 6.519C2.53166 5.72817 3.32249 5.23817 4.90332 4.2565L6.56999 3.22234C8.24082 2.18484 9.07666 1.6665 9.99999 1.6665C10.9233 1.6665 11.7583 2.18484 13.43 3.22234L15.0967 4.2565C16.6775 5.23817 17.4683 5.72817 17.9008 6.519C18.3333 7.309 18.3333 8.26234 18.3333 10.169V11.4373C18.3333 14.6873 18.3333 16.3132 17.3567 17.3232C16.3808 18.3332 14.8092 18.3332 11.6667 18.3332H8.33332C5.19082 18.3332 3.61916 18.3332 2.64332 17.3232C1.66666 16.3132 1.66666 14.6882 1.66666 11.4373V10.1698Z" stroke="#29343D" stroke-width="1.25"/>
<path d="M10 12.5V15" stroke="#29343D" stroke-width="1.25" stroke-linecap="round"/>
</svg>
