<svg width="20" height="20" viewBox="0 0 20 20" fill="none" xmlns="http://www.w3.org/2000/svg">
<path d="M17.7084 9.99984C17.7084 12.0442 16.8962 14.0049 15.4506 15.4505C14.005 16.896 12.0444 17.7082 10 17.7082V18.9582C14.9475 18.9582 18.9584 14.9473 18.9584 9.99984H17.7084ZM10 17.7082C7.95564 17.7082 5.995 16.896 4.54941 15.4505C3.10381 14.0049 2.29169 12.0442 2.29169 9.99984H1.04169C1.04169 14.9473 5.05252 18.9582 10 18.9582V17.7082ZM2.29169 9.99984C2.29169 7.95546 3.10381 5.99482 4.54941 4.54922C5.995 3.10363 7.95564 2.2915 10 2.2915V1.0415C5.05252 1.0415 1.04169 5.05234 1.04169 9.99984H2.29169ZM12.9167 11.8748C11.6459 11.8748 10.4271 11.37 9.52847 10.4714C8.62986 9.57278 8.12502 8.354 8.12502 7.08317H6.87502C6.87502 8.68552 7.51155 10.2222 8.64458 11.3553C9.77762 12.4883 11.3143 13.1248 12.9167 13.1248V11.8748ZM17.0209 9.55734C16.5947 10.2648 15.9928 10.8499 15.2737 11.256C14.5545 11.6621 13.7426 11.8753 12.9167 11.8748V13.1248C13.9579 13.1254 14.9815 12.8567 15.8883 12.345C16.795 11.8332 17.5541 11.0957 18.0917 10.204L17.0209 9.55734ZM8.12502 7.08317C8.12466 6.25731 8.33787 5.44539 8.74394 4.72626C9.15001 4.00713 9.73515 3.40523 10.4425 2.979L9.79585 1.909C8.90426 2.4465 8.16677 3.20538 7.655 4.11198C7.14322 5.01858 6.87453 6.04209 6.87502 7.08317H8.12502ZM10 2.2915C9.91551 2.28951 9.83522 2.25416 9.77669 2.19317C9.7409 2.15837 9.71699 2.11317 9.70835 2.064C9.70502 2.03817 9.70669 1.96317 9.79585 1.909L10.4425 2.979C10.8617 2.72567 10.9967 2.2615 10.9475 1.8965C10.8959 1.51734 10.5975 1.0415 10 1.0415V2.2915ZM18.0917 10.204C18.0367 10.2932 17.9617 10.2948 17.9359 10.2915C17.8867 10.2829 17.8415 10.259 17.8067 10.2232C17.7457 10.1646 17.7103 10.0843 17.7084 9.99984H18.9584C18.9584 9.40234 18.4825 9.104 18.1034 9.05234C17.7384 9.00317 17.2742 9.13817 17.0209 9.55734L18.0917 10.204Z" fill="#29343D"/>
</svg>
