<svg width="123" height="42" viewBox="0 0 123 42" fill="none" xmlns="http://www.w3.org/2000/svg">
<g clip-path="url(#clip0_17401_479)">
<path d="M11.0961 2.73053e-06C10.5242 2.73053e-06 9.9652 0.168802 9.48972 0.485054C9.01424 0.801306 8.64364 1.25081 8.4248 1.77672C8.20596 2.30262 8.14871 2.88132 8.26027 3.43962C8.37183 3.99792 8.64721 4.51075 9.05157 4.91327C9.45594 5.31578 9.97113 5.58989 10.532 5.70094C11.0929 5.812 11.6742 5.755 12.2025 5.53716C12.7309 5.31932 13.1824 4.95043 13.5001 4.47712C13.8179 4.00382 13.9874 3.44736 13.9874 2.87813C13.9879 2.50002 13.9135 2.12552 13.7684 1.7761C13.6233 1.42667 13.4103 1.10919 13.1417 0.841823C12.8731 0.574461 12.5542 0.36248 12.2032 0.218025C11.8521 0.0735707 11.4759 -0.000518437 11.0961 2.73053e-06Z" fill="#635BFF"/>
<path d="M18.2589 2.72401e-06C17.6868 -0.000780505 17.1274 0.167352 16.6514 0.483128C16.1754 0.798904 15.8042 1.24813 15.5848 1.77397C15.3653 2.29981 15.3075 2.87863 15.4186 3.43719C15.5297 3.99575 15.8048 4.50895 16.209 4.91186C16.6132 5.31477 17.1284 5.58928 17.6893 5.70065C18.2503 5.81203 18.8319 5.75526 19.3604 5.53754C19.889 5.31982 20.3408 4.95092 20.6587 4.47753C20.9766 4.00414 21.1462 3.44753 21.1462 2.87813C21.1468 2.50035 21.0725 2.12618 20.9276 1.77701C20.7827 1.42785 20.5701 1.11054 20.302 0.843225C20.0338 0.575915 19.7153 0.363851 19.3647 0.219164C19.0142 0.0744758 18.6384 2.36565e-06 18.2589 2.72401e-06Z" fill="#635BFF"/>
<path d="M107.78 8.87584C107.986 8.87584 108.197 8.87584 108.404 8.87584C108.205 8.86001 107.994 8.86792 107.78 8.87584Z" fill="#635BFF"/>
<path d="M37.7587 37.9066C39.3555 37.9066 40.65 36.6181 40.65 35.0285C40.65 33.439 39.3555 32.1504 37.7587 32.1504C36.1618 32.1504 34.8673 33.439 34.8673 35.0285C34.8673 36.6181 36.1618 37.9066 37.7587 37.9066Z" fill="#635BFF"/>
<path d="M82.6761 35.7647C83.591 35.7647 84.4684 35.4032 85.1157 34.7596C85.763 34.1161 86.1272 33.243 86.1282 32.3324V14.2085L84.1198 16.3305L83.0977 17.4192L81.8011 18.7889H83.0977V31.2753C83.0914 31.5818 83.001 31.8806 82.8363 32.1395C82.6715 32.3985 82.4387 32.6075 82.163 32.7441H78.7865V31.4495L77.4104 32.7362L76.3087 33.7694L74.177 35.7489H82.688L82.6761 35.7647Z" fill="#635BFF"/>
<path d="M78.6592 24.68C78.8643 24.0183 78.9688 23.3298 78.9694 22.6372V18.5477C78.9705 17.6417 78.792 16.7445 78.4442 15.9073C78.0964 15.0701 77.5861 14.3095 76.9426 13.6689C76.299 13.0283 75.5349 12.5203 74.6938 12.1741C73.8528 11.8279 72.9514 11.6502 72.0413 11.6513H55.4448H55.3335H55.2699H54.9557C54.7678 11.6307 54.5867 11.5693 54.4252 11.4715C54.2637 11.3737 54.1258 11.2418 54.021 11.0852C54.0022 11.0592 53.9862 11.0314 53.9733 11.002C53.871 10.8164 53.8176 10.608 53.8182 10.3963C53.8182 10.3607 53.8182 10.329 53.8182 10.2973C53.8337 10.1205 53.8837 9.94839 53.9654 9.7906C53.9758 9.76867 53.9877 9.7475 54.0012 9.72726C54.0943 9.56616 54.2215 9.42715 54.3739 9.31983C54.5264 9.21251 54.7005 9.13945 54.8841 9.10571C54.9652 9.08845 55.0477 9.07917 55.1306 9.078H66.3143V10.3686L67.6705 9.10571L68.7721 8.07639L70.9039 6.07715H54.379C53.4655 6.07714 52.5892 6.43755 51.9422 7.07942C51.2951 7.72129 50.93 8.59229 50.9268 9.5016V11.2554C50.9268 12.1668 51.2906 13.0408 51.938 13.6852C52.5854 14.3297 53.4634 14.6917 54.379 14.6917H71.3891C72.6093 14.7208 73.769 15.2267 74.6174 16.1002C75.4658 16.9736 75.9348 18.1444 75.923 19.3593V21.9919C75.8948 23.2073 75.387 24.3626 74.5094 25.208C73.6318 26.0534 72.4551 26.5208 71.234 26.509H25.7001C25.6802 26.5684 25.6643 26.6278 25.6484 26.6872C25.6245 26.7703 25.5967 26.8495 25.5688 26.9326L25.545 27.0079C25.545 27.0475 25.5171 27.087 25.5052 27.1266C25.4694 27.2256 25.4336 27.3246 25.3938 27.4196C25.354 27.5146 25.3342 27.5819 25.3023 27.6611C25.2705 27.7403 25.187 27.9382 25.1274 28.057C25.12 28.0711 25.1133 28.0857 25.1075 28.1005C25.1006 28.1201 25.0913 28.1387 25.0796 28.156C24.9683 28.4014 24.845 28.6429 24.7137 28.8765C24.5825 29.11 24.4711 29.304 24.3399 29.5099C24.2603 29.6366 24.1768 29.7593 24.0933 29.882L24.0694 29.9137C23.9939 30.0245 23.9143 30.1314 23.8308 30.2423V30.27C23.6598 30.4957 23.4808 30.7174 23.2899 30.9311C23.0791 31.1647 22.8604 31.3943 22.6337 31.6121L22.578 31.6675L22.5462 31.6952H22.5263C22.2877 31.9169 22.0411 32.1307 21.7866 32.3326L21.6832 32.4157C21.544 32.5226 21.4008 32.6255 21.2576 32.7285L21.2099 32.7641L21.1542 32.8037L21.0628 32.8631L20.9275 32.9541L20.7684 33.0571L20.4463 33.2511L20.2991 33.3342L20.2156 33.3857L20.1122 33.4371L20.0088 33.4925C19.9253 33.5401 19.8378 33.5836 19.7503 33.6272L19.4997 33.7499L19.3367 33.8211L19.2054 33.8805H19.1776L19.0265 33.9439L18.6924 34.126L18.593 34.1656L18.4617 34.2091C18.3464 34.2527 18.2311 34.2883 18.1157 34.3279L17.9646 34.3754L17.4993 34.5021L17.376 34.5337H17.2964L16.9783 34.609L16.8629 34.6327L16.3817 34.7198H16.2584C16.1113 34.7436 15.9601 34.7634 15.809 34.7792H15.7374L15.2283 34.8188H15.113C14.938 34.8188 14.763 34.8188 14.584 34.8188C11.522 34.8188 8.58532 33.6079 6.42011 31.4527C4.2549 29.2974 3.0385 26.3741 3.0385 23.3261C3.0385 20.278 4.2549 17.3548 6.42011 15.1995C8.58532 13.0442 11.522 11.8334 14.584 11.8334C14.763 11.8334 14.938 11.8334 15.117 11.8334H15.2045H15.3079L15.6658 11.8611H15.6937H15.8806L16.2226 11.9047L16.4215 11.9363C16.5408 11.9363 16.6601 11.9759 16.7754 11.9997L16.8828 12.0195H16.9464H16.9942C17.1161 12.0432 17.2394 12.0709 17.364 12.1026L17.4993 12.2728H17.5311C17.6782 12.3085 17.8214 12.352 17.9646 12.3956L18.1595 12.4589L18.4577 12.5579L18.6486 12.6291L18.931 12.74L19.1418 12.8271L19.4083 12.9458L19.5594 13.0171L19.6906 13.0804L19.9054 13.1913L19.9571 13.2151L20.1242 13.3101L20.2554 13.3813L20.3986 13.4645L20.6849 13.6387L20.7247 13.6624L20.9116 13.7812L21.1542 13.9474L21.3213 14.0662C21.4048 14.1256 21.4883 14.185 21.5678 14.2483L21.6752 14.3315C21.8184 14.4423 21.9576 14.5571 22.0968 14.6759L22.2479 14.8105L22.403 14.949L22.5581 15.0955C22.6775 15.2103 22.7968 15.3291 22.9081 15.4479C22.9277 15.4653 22.9463 15.4838 22.9638 15.5033C23.0805 15.6273 23.1958 15.7593 23.3098 15.8992L23.457 16.0773L23.5803 16.2278L23.6041 16.2594C23.7115 16.394 23.8149 16.5326 23.9143 16.6553L23.9422 16.691L23.9939 16.7662L24.2444 17.1344L24.316 17.2452L24.4353 17.4392L24.5427 17.6213C24.5825 17.6847 24.6183 17.752 24.6541 17.8153L24.7575 18.0053C24.7853 18.0568 24.8132 18.1083 24.837 18.1597C24.8444 18.1725 24.8511 18.1857 24.8569 18.1993C24.8927 18.2666 24.9245 18.33 24.9563 18.3973L25.0359 18.5635V18.5952C25.1512 18.8446 25.2586 19.098 25.354 19.3553H28.5556C28.484 19.1138 28.4085 18.8763 28.3249 18.6387C28.2732 18.4883 28.2176 18.3418 28.1619 18.1914L28.0863 18.0093C28.0545 17.9222 28.0187 17.839 27.9829 17.7559C27.9471 17.6728 27.9193 17.6055 27.8835 17.5303L27.8397 17.3561C27.8 17.2729 27.7602 17.1858 27.7165 17.0987V17.0631V17.0394L27.6886 16.9839V16.9483C27.6687 16.9127 27.6488 16.877 27.6329 16.8414L27.5415 16.6633L27.45 16.493L27.3943 16.394C27.3545 16.3188 27.3108 16.2436 27.267 16.1684L27.1835 16.0259L27.1239 15.9229L26.9409 15.63L26.7938 15.44V15.4162L26.6466 15.2262C26.6029 15.1589 26.5591 15.0916 26.5114 15.0243C26.2887 14.7076 26.0461 14.3988 25.7995 14.1018C25.5768 13.8406 25.3461 13.5832 25.1075 13.3338L24.8171 13.0409L24.7813 13.0092L24.4393 12.6687H24.4155L24.0575 12.352L24.0297 12.3283L23.9859 12.2728L23.62 11.9759L23.5564 11.9284L23.3615 11.7819L23.1706 11.6354L23.111 11.5919C22.9877 11.5048 22.8684 11.4177 22.7411 11.3346L22.6377 11.2673L22.5542 11.2118L22.4866 11.1683L22.2638 11.0258L22.1644 10.9704C22.0332 10.8872 21.9019 10.812 21.7667 10.7328H21.7349L21.4048 10.5547L21.1662 10.4319L21.0906 10.3963L20.8718 10.2855L20.5775 10.1548L20.49 10.1152C20.4264 10.0875 20.3628 10.0558 20.2952 10.0321L19.8855 9.8579L19.7781 9.81831L19.6549 9.7708L19.5276 9.7233L19.3446 9.65996L19.0662 9.56494H19.0344L18.7719 9.4818H18.7361L18.4896 9.41054L18.3862 9.38283L18.1436 9.31553L18.0401 9.29178L17.897 9.24427C17.8055 9.22448 17.714 9.20072 17.6226 9.18489L17.4993 9.15322L17.3521 9.12946H17.3044L17.0379 9.08196H16.9464H16.855H16.6999L16.4374 9.04237L16.2544 9.02257H16.1868L15.9522 8.99882H15.8289L15.5107 8.89589H15.4749H15.2602H15.113C14.934 8.89589 14.7551 8.89589 14.5761 8.89589C10.7483 8.9588 7.09865 10.5166 4.41405 13.2334C1.72946 15.9502 0.224976 19.6083 0.224976 23.4191C0.224976 27.2299 1.72946 30.8881 4.41405 33.6049C7.09865 36.3217 10.7483 37.8794 14.5761 37.9424C14.8028 37.9424 15.0255 37.9424 15.2482 37.9424H15.4391L15.9522 37.9028H16.1192L16.6323 37.8355H16.7635H16.8947H16.9822L17.4078 37.7563L17.6066 37.7167L18.1117 37.6019L18.243 37.5702C18.4458 37.5188 18.6407 37.4594 18.8435 37.4L19.0503 37.2139C19.1219 37.2139 19.1895 37.1664 19.2611 37.1427C19.3327 37.1189 19.4043 37.0991 19.4719 37.0714L19.6827 37.0001L20.156 36.818H20.1957L20.319 36.7666L20.3668 36.7428L20.5179 36.6755C20.6133 36.632 20.7128 36.5924 20.8042 36.5449L20.9633 36.4696L21.0389 36.4221L21.3809 36.2479L21.6036 36.1331L22.0888 35.8521L22.2042 35.7808L22.3155 35.7135L22.6059 35.5274L22.7331 35.4403L22.8564 35.3572L22.9399 35.3018L23.1229 35.1711C23.2502 35.0801 23.3735 34.9851 23.4967 34.89L23.6161 34.799L23.7712 34.6763L23.9342 34.5417L24.0297 34.4585L24.2285 34.2883L24.491 34.0547L24.5189 34.027L24.6461 33.9043C24.7575 33.8013 24.8649 33.6905 24.9722 33.5836L25.1274 33.4292L25.1711 33.3857L25.2666 33.2867L25.5251 33.0016L25.5489 32.97L25.6484 32.8552C25.7915 32.6889 25.9307 32.5226 26.066 32.3524C26.2012 32.1822 26.3284 32.008 26.4637 31.8298C26.4911 31.7972 26.5163 31.7628 26.5392 31.7269L26.5591 31.6992C26.6387 31.5883 26.7182 31.4735 26.7938 31.3547L26.8494 31.2676V31.2479C27.0165 30.9945 27.1716 30.7372 27.3187 30.4759V30.4561L27.442 30.2463C27.4738 30.1829 27.5096 30.1196 27.5454 30.0562C27.5536 30.0327 27.5643 30.0102 27.5772 29.9889L27.613 29.9216C27.6767 29.791 27.7443 29.6643 27.8039 29.5257H33.8054V29.3951L33.8293 29.5257H72.0493C72.7451 29.5271 73.4371 29.4229 74.1015 29.2169C75.1733 28.8844 76.148 28.2978 76.9419 27.5075C77.7358 26.7173 78.3251 25.747 78.6592 24.68Z" fill="#635BFF"/>
<path d="M58.5629 24.3631H70.3272C71.2417 24.3631 72.1188 24.0015 72.7654 23.3578C73.4121 22.7141 73.7754 21.841 73.7754 20.9307V19.743C73.7754 18.8324 73.4122 17.9589 72.7657 17.3146C72.1191 16.6703 71.2421 16.3078 70.3272 16.3067H53.6234C52.4028 16.2777 51.2427 15.7718 50.3936 14.8985C49.5446 14.0252 49.0747 12.8545 49.0855 11.6392V8.83231C49.1157 7.61803 49.6243 6.46424 50.5015 5.61991C51.3788 4.77559 52.5543 4.3084 53.7745 4.31916H70.9158L68.7841 2.33971L67.6825 1.3104L66.2944 0V1.2906H52.9592C51.48 1.28555 50.0384 1.75378 48.8468 2.62623C47.6553 3.49869 46.7769 4.7292 46.3413 6.1363C46.1346 6.79904 46.03 7.48912 46.0311 8.18305V12.4349C46.0298 13.1276 46.1344 13.8164 46.3413 14.4777C46.7781 15.884 47.656 17.114 48.8462 17.9874C50.0365 18.8609 51.4765 19.3319 52.9552 19.3313H69.7028C69.9385 19.3306 70.167 19.4117 70.3492 19.5605C70.5314 19.7093 70.6558 19.9166 70.7011 20.1469C70.7046 20.1718 70.7046 20.1971 70.7011 20.2221C70.7032 20.259 70.7032 20.296 70.7011 20.3329C70.6994 20.5817 70.6056 20.8211 70.4375 21.0052C70.2694 21.1894 70.0389 21.3052 69.7903 21.3306H41.7994V18.7969H43.092L41.7994 17.4192L40.7733 16.3344L38.7848 14.2125V24.3631H58.5908H58.5629Z" fill="#635BFF"/>
<path d="M93.8597 24.3629H99.0658C99.0896 24.5648 99.1175 24.7588 99.1493 24.9568C99.1811 25.1468 99.2209 25.3329 99.2646 25.5189V25.5506C99.3563 25.9292 99.4705 26.302 99.6067 26.667C100.005 27.7064 100.586 28.6673 101.321 29.5055C102.076 30.3651 102.982 31.0814 103.993 31.6196H104.029C104.156 31.6869 104.288 31.7502 104.427 31.8136L104.514 31.8532L104.86 32.0036L104.988 32.0511C105.094 32.096 105.201 32.1356 105.31 32.1699L105.457 32.2214C105.56 32.2583 105.664 32.29 105.767 32.3164L105.934 32.3639L106.237 32.4391L106.415 32.4826L106.718 32.542L106.901 32.5737L107.215 32.6172L107.398 32.641L107.736 32.6687H107.895C108.062 32.6687 108.233 32.6687 108.4 32.6687C110.687 32.6681 112.896 31.8373 114.612 30.3318C116.328 28.8264 117.433 26.7498 117.721 24.4911C118.009 22.2324 117.459 19.9468 116.175 18.0626C114.891 16.1784 112.961 14.8249 110.747 14.2559C110.448 14.1806 110.142 14.1173 109.832 14.0698C109.358 13.9982 108.879 13.9625 108.4 13.9629H108.046H107.931H107.692H107.561L107.338 13.9866H107.207L106.98 14.0183H106.861L106.59 14.0698H106.519L106.189 14.145L106.089 14.1688L105.855 14.2321L105.731 14.2677L105.529 14.3311L105.401 14.3707L105.202 14.4419L105.079 14.4855L104.86 14.5726L104.765 14.6122L104.463 14.7428L104.387 14.7824L104.16 14.8893L104.049 14.9487L103.866 15.0476L103.747 15.1149L103.572 15.2139L103.457 15.2852L103.278 15.4L103.178 15.4673C103.095 15.5227 103.011 15.5781 102.932 15.6375L102.872 15.6811L102.645 15.8513L102.55 15.9265L102.387 16.0572L102.283 16.1442C102.232 16.1878 102.18 16.2313 102.132 16.2789L102.033 16.3659C101.981 16.4135 101.929 16.461 101.882 16.5124L101.79 16.5956L101.611 16.7816C101.592 16.7968 101.575 16.814 101.559 16.8331L101.337 17.0746L101.277 17.1498L101.122 17.328L101.05 17.423C101.003 17.4784 100.959 17.5378 100.915 17.5932L100.844 17.6882L100.708 17.8743L100.649 17.9614L100.498 18.187C100.485 18.2027 100.474 18.22 100.466 18.2385C100.406 18.3296 100.35 18.4206 100.295 18.5156C100.156 18.7492 100.032 18.9867 99.897 19.2322H103.476C103.758 18.8911 104.074 18.5794 104.419 18.3019L104.487 18.2504C104.566 18.187 104.646 18.1277 104.729 18.0722L104.801 18.0208C104.9 17.9535 105 17.8862 105.103 17.8268L105.179 17.7832C105.262 17.7318 105.35 17.6843 105.437 17.6368L105.525 17.5932C105.632 17.5378 105.739 17.4863 105.851 17.4388L105.922 17.4071L106.209 17.2963L106.3 17.2646C106.419 17.2211 106.535 17.1854 106.654 17.1498H106.714C106.817 17.1181 106.925 17.0944 107.028 17.0706L107.127 17.0508C107.251 17.0231 107.378 17.0033 107.505 16.9835H107.537L107.891 16.9479H107.994H108.392C108.503 16.9479 108.611 16.9479 108.718 16.9479C108.937 16.9479 109.148 16.9796 109.359 17.0113C109.569 17.0429 109.776 17.0865 109.979 17.1379L110.234 17.2092C111.774 17.5804 113.12 18.5107 114.008 19.8178C114.896 21.1249 115.261 22.7147 115.034 24.2761C114.806 25.8376 114.001 27.2581 112.776 28.2598C111.551 29.2614 109.995 29.772 108.412 29.6916C108.293 29.6916 108.169 29.6916 108.05 29.6916H107.967L107.68 29.6639H107.613C107.509 29.6639 107.406 29.6481 107.302 29.6164H107.267C107.155 29.6164 107.048 29.5728 106.936 29.5451L106.638 29.466L106.368 29.3789L106.28 29.3472C106.215 29.3269 106.152 29.3031 106.089 29.2759L105.982 29.2324L105.811 29.1611L105.704 29.1097L105.541 29.0305L105.437 28.9751L105.266 28.88L105.179 28.8325C105.095 28.7811 105.012 28.7296 104.932 28.6742C104.845 28.6207 104.762 28.5625 104.681 28.5L104.447 28.3139L104.2 28.1081L103.989 27.9101L103.791 27.7042C103.727 27.633 103.663 27.5617 103.604 27.4865C103.54 27.4152 103.48 27.3361 103.421 27.2608L103.242 27.0154C103.17 26.9125 103.107 26.8135 103.043 26.7066L102.991 26.6155C102.947 26.5403 102.904 26.4651 102.864 26.3859L102.808 26.283L102.689 26.0257L102.653 25.9505C102.605 25.8436 102.566 25.7327 102.526 25.6219L102.478 25.4912C102.454 25.4239 102.43 25.3527 102.411 25.2814C102.391 25.2101 102.379 25.1745 102.367 25.123C102.355 25.0716 102.331 24.9884 102.315 24.9251C102.299 24.8618 102.287 24.8182 102.279 24.7628C102.271 24.7074 102.232 24.545 102.216 24.4342C102.2 24.3233 102.176 24.1373 102.16 23.9868C102.16 23.9552 102.16 23.9275 102.16 23.8997V23.7374C102.16 23.6464 102.16 23.5514 102.16 23.4563C102.16 22.8224 102.258 22.1922 102.45 21.5877H91.4297V18.7967H92.7263L91.4297 17.419L90.4076 16.3343L88.4191 14.2123V24.3629H93.8597Z" fill="#635BFF"/>
<path d="M108.412 8.86001C108.205 8.86001 108.014 8.86001 107.788 8.86001H107.581L107.183 8.88772L106.936 8.91147L106.571 8.95106L106.308 8.99065L105.97 9.04212L105.7 9.08962L105.377 9.15692C105.286 9.15692 105.194 9.19651 105.103 9.21631L104.793 9.29153L104.514 9.36675L104.22 9.44988L103.938 9.53698L103.659 9.63199L103.373 9.73492L103.122 9.82994L102.816 9.95266L102.621 10.0358C102.174 10.2278 101.737 10.4432 101.313 10.6811H101.281C101.146 10.7603 101.015 10.8355 100.883 10.9186L100.788 10.9741C100.661 11.0532 100.533 11.1324 100.41 11.2156L100.307 11.2829L99.9367 11.5402L99.8413 11.6075L99.4754 11.8846L99.3959 11.944L99.03 12.2726L98.9783 12.3201C98.847 12.4309 98.7197 12.5418 98.5805 12.6566C98.104 13.092 97.6576 13.5589 97.2442 14.0541C97.1249 14.1926 97.0096 14.3391 96.8943 14.4856L96.8505 14.545C96.7352 14.6915 96.6238 14.8419 96.5164 14.9923C96.4263 15.1217 96.3348 15.2536 96.242 15.3882V15.412C96.1585 15.5387 96.0789 15.6654 95.9994 15.8079L95.8841 16.0019L95.7528 16.2275L95.6216 16.469L95.5261 16.6432C95.4784 16.7343 95.4267 16.8293 95.383 16.9243C95.3748 16.9353 95.3682 16.9473 95.3631 16.9599L95.3352 17.0153V17.0391C95.0834 17.5538 94.8616 18.0825 94.671 18.6227C94.5915 18.8602 94.512 19.0977 94.4404 19.3392H97.6221C97.7215 19.0819 97.8249 18.8285 97.9402 18.5791C97.972 18.5118 98.0039 18.4485 98.0317 18.3812C98.0595 18.3139 98.0993 18.2505 98.1311 18.1832L98.2306 17.9892L98.3379 17.7992C98.3698 17.7319 98.4095 17.6686 98.4453 17.6052L98.5567 17.4192C98.5925 17.3558 98.6323 17.2964 98.672 17.2331L98.7913 17.047L98.9106 16.8728C98.9544 16.8055 99.0021 16.7382 99.0498 16.6749C99.0976 16.6115 99.1214 16.568 99.1612 16.5165L99.4157 16.1879L99.539 16.0375L99.6941 15.8554L99.8294 15.701L99.9845 15.5308L100.128 15.3803L100.287 15.218L100.438 15.0715L100.605 14.9171L100.756 14.7786L100.931 14.6242L101.086 14.4935L101.281 14.3352L101.416 14.252L101.703 14.0422L101.842 13.9432L102.12 13.7532L102.267 13.6622L102.49 13.5236L102.653 13.4286L102.872 13.3059L103.043 13.2108L103.266 13.1L103.437 13.0129L103.667 12.906L103.838 12.8308L104.089 12.7279L104.248 12.6606L104.546 12.5497L104.666 12.5062L105.083 12.3716L105.202 12.3399C105.306 12.3082 105.409 12.2765 105.517 12.2528L105.68 12.2092L105.954 12.1459L106.133 12.1103L106.404 12.0588L106.586 12.0271L106.857 11.9875L107.044 11.9638L107.322 11.9321H107.501L107.815 11.9123H107.967C108.12 11.9123 108.275 11.9123 108.432 11.9123C109.948 11.9123 111.449 12.2096 112.85 12.7872C114.251 13.3647 115.524 14.2113 116.596 15.2785C117.668 16.3456 118.518 17.6126 119.099 19.007C119.679 20.4013 119.977 21.8958 119.977 23.405C119.977 24.9143 119.679 26.4087 119.099 27.8031C118.518 29.1974 117.668 30.4644 116.596 31.5316C115.524 32.5988 114.251 33.4453 112.85 34.0229C111.449 34.6004 109.948 34.8977 108.432 34.8977H107.903H107.78L107.267 34.8581H107.199C107.048 34.8423 106.897 34.8225 106.746 34.7987H106.626L106.141 34.7116L106.026 34.6879L105.628 34.5968L105.501 34.5652L105.055 34.4385L104.904 34.391L104.558 34.2722L104.423 34.2287L104.025 34.0663L103.846 33.9911L103.552 33.8605L103.301 33.7378L103.043 33.6031L102.836 33.4923C102.762 33.4527 102.686 33.4092 102.609 33.3617C102.498 33.2983 102.391 33.235 102.287 33.1677L102.12 33.0608C102.041 33.0093 101.965 32.9618 101.89 32.9064L101.786 32.8351C101.643 32.7322 101.5 32.6293 101.361 32.5224L101.257 32.4392C101.003 32.2373 100.756 32.0433 100.517 31.8018L100.47 31.7543C100.219 31.5208 99.9845 31.2714 99.7578 31.018C99.3657 30.5717 99.0081 30.0966 98.6879 29.5967C98.4103 29.1629 98.1631 28.7105 97.9482 28.2428C97.9482 28.2428 97.9482 28.2072 97.9204 28.1874C97.7732 27.8627 97.638 27.5262 97.5226 27.1858C97.5226 27.1462 97.4988 27.1066 97.4829 27.067C97.451 26.9601 97.4153 26.8572 97.3834 26.7463H88.3872V33.1677C88.357 34.382 87.8484 35.5357 86.9712 36.3801C86.0939 37.2244 84.9184 37.6916 83.6982 37.6808H74.4912L76.6269 39.6603L77.7246 40.6896L79.1007 41.9802V40.6896H84.5056C86.2303 40.6966 87.895 40.0597 89.1711 38.9046C90.4471 37.7495 91.2417 36.1602 91.3979 34.4504H91.4297V29.5294H95.2C95.2636 29.664 95.3273 29.7907 95.3949 29.9253C95.3949 29.9689 95.4386 30.0164 95.4625 30.0599L95.6653 30.4558C95.8125 30.7211 95.9716 30.9824 96.1346 31.2476C96.1594 31.2804 96.182 31.3148 96.2022 31.3505C96.2818 31.4693 96.3573 31.5841 96.4409 31.695L96.5323 31.8256C96.7869 32.1779 97.0573 32.5224 97.3278 32.851L97.455 32.9935C97.5385 33.0924 97.626 33.1875 97.7135 33.2825L97.8488 33.425C98.0078 33.5873 98.1669 33.7457 98.33 33.9001C98.3817 33.9515 98.4334 34.003 98.4891 34.0505L98.7516 34.288L98.9464 34.4543L99.205 34.6721L99.4714 34.8819L99.8691 35.1669L100.132 35.353L100.382 35.5232L100.673 35.7053L100.899 35.8478C101.058 35.9429 101.221 36.0379 101.388 36.1289L101.607 36.2437L101.953 36.4179L102.18 36.5288C102.327 36.6 102.47 36.6634 102.617 36.7267L102.792 36.8019C102.963 36.8732 103.134 36.9405 103.309 37.0038L103.516 37.0791C103.655 37.1305 103.799 37.178 103.938 37.2216L104.133 37.2849C104.327 37.3443 104.53 37.4037 104.729 37.4552L104.864 37.4868L105.365 37.6016L105.564 37.6412C105.735 37.6769 105.906 37.7085 106.081 37.7362H106.213L106.857 37.8194H107.028L107.537 37.859H107.732C107.951 37.859 108.177 37.859 108.4 37.859C112.228 37.7961 115.877 36.2383 118.562 33.5215C121.247 30.8047 122.751 27.1465 122.751 23.3357C122.751 19.5249 121.247 15.8668 118.562 13.15C115.877 10.4332 112.228 8.87541 108.4 8.8125L108.412 8.86001Z" fill="#635BFF"/>
<path d="M25.9785 21.5125H20.6571C20.8459 22.1176 20.9424 22.7474 20.9435 23.3811C20.9435 23.4761 20.9435 23.5711 20.9435 23.6621C20.9435 23.6899 20.9435 23.7215 20.9435 23.7492C20.9435 23.7769 20.9435 23.8007 20.9435 23.8284C20.9435 23.8561 20.9435 23.8838 20.9435 23.9116C20.9435 24.062 20.9116 24.2085 20.8878 24.3589C20.8639 24.5093 20.852 24.5806 20.8281 24.6875L20.8043 24.7825C20.8065 24.8049 20.8065 24.8274 20.8043 24.8498L20.7565 25.0478C20.7565 25.0478 20.7565 25.0913 20.7367 25.1111C20.7292 25.1433 20.7199 25.175 20.7088 25.2061C20.7088 25.2774 20.6651 25.3486 20.6412 25.4159C20.6173 25.4832 20.6134 25.503 20.5975 25.5466C20.5577 25.6574 20.5139 25.7683 20.4662 25.8752C20.4662 25.8989 20.4423 25.9227 20.4344 25.9504C20.3946 26.0375 20.3548 26.1246 20.3111 26.2077C20.2674 26.2909 20.2753 26.275 20.2594 26.3106L20.1321 26.5403C20.1122 26.5719 20.0924 26.6036 20.0765 26.6353C20.0128 26.7342 19.9492 26.8372 19.8856 26.9322C19.8219 27.0272 19.7623 27.1064 19.6986 27.1895L19.5077 27.4231L19.3168 27.6408L19.1856 27.7794C19.1617 27.7794 19.1418 27.8229 19.118 27.8467L18.9072 28.0446L18.6845 28.2347L18.4458 28.4207L18.2669 28.5474L18.1953 28.5949C18.1078 28.6543 18.0203 28.7097 17.9288 28.7612L17.8254 28.8206L17.6544 28.9156L17.5351 28.975L17.376 29.0542L17.2607 29.1017L17.0857 29.1809L16.9823 29.2165L16.7874 29.2917L16.6959 29.3194L16.4811 29.3907H16.4016L16.1709 29.4501L15.8766 29.5134H15.8448H15.809H15.6738L15.4988 29.5411H15.4272H15.3835C15.3039 29.5411 15.2204 29.5411 15.1409 29.5649H15.0613C14.938 29.5649 14.8187 29.5649 14.6954 29.5649C13.0078 29.5649 11.3892 28.8975 10.1958 27.7096C9.00248 26.5217 8.33205 24.9106 8.33205 23.2306C8.33205 23.1316 8.33205 23.0287 8.33205 22.9297C8.33205 22.8981 8.33205 22.8664 8.33205 22.8347C8.33205 22.8031 8.33205 22.6962 8.33205 22.6289V22.518L8.35592 22.3319C8.35592 22.2924 8.35592 22.2567 8.35592 22.2211L8.35194 22.1696C8.35664 22.135 8.36328 22.1006 8.37182 22.0667C8.37182 21.9915 8.40364 21.9163 8.42353 21.845V21.7856C8.44739 21.6906 8.47523 21.5956 8.50307 21.5045L8.52693 21.4333L8.59852 21.2314L8.63431 21.1324C8.6542 21.077 8.67806 21.0176 8.70192 20.9582C8.72579 20.8988 8.72976 20.8949 8.74567 20.8592L8.82124 20.693C8.83745 20.6621 8.85206 20.6303 8.86499 20.5979L8.96044 20.4158C8.97216 20.3913 8.98545 20.3675 9.00021 20.3446C9.04263 20.2628 9.09036 20.1796 9.14338 20.0952C9.14414 20.0859 9.14414 20.0767 9.14338 20.0675L9.27861 19.8576L9.33428 19.7824C9.37008 19.727 9.40587 19.6755 9.44564 19.6241L9.50928 19.5409L9.62064 19.3984L9.68825 19.3153L9.81552 19.1727L9.87517 19.1015L10.0502 18.9233L10.07 18.8996L10.2769 18.7016L10.3365 18.6502L10.4916 18.5156L10.5712 18.4522L10.7183 18.3374L10.8018 18.2741L10.953 18.1672L11.0365 18.1078L11.2194 17.9969L11.2791 17.9574C11.3586 17.9059 11.4422 17.8584 11.5257 17.8148L11.5814 17.7871L11.7802 17.6842L11.8717 17.6406L12.0427 17.5654L12.1461 17.5219L12.3171 17.4546L12.4205 17.415L12.6035 17.3556L12.6949 17.3239L12.9694 17.2487L13.2279 17.1893C13.4249 17.1474 13.6241 17.1157 13.8244 17.0943C13.9597 17.0785 14.0922 17.0666 14.2221 17.0587C14.3295 17.0587 14.4409 17.0587 14.5483 17.0587H14.946H15.0375C15.1568 17.0587 15.2761 17.0587 15.3914 17.0943H15.4272C15.5545 17.0943 15.6778 17.1339 15.8011 17.1616L15.9005 17.1814L16.2147 17.2566H16.2704C16.3897 17.2923 16.505 17.3279 16.6243 17.3714L16.7198 17.4031L17.0021 17.514L17.0737 17.5456C17.1851 17.5931 17.2965 17.6446 17.4038 17.7L17.4714 17.7357L17.7339 17.8821L17.7976 17.9217C17.901 17.9811 18.0044 18.0484 18.0998 18.1157L18.1396 18.1434L18.1754 18.1672C18.2549 18.2226 18.3345 18.282 18.414 18.3453L18.4816 18.3968C18.8536 18.6922 19.1911 19.0281 19.4878 19.3984H23.0672C22.9519 19.1529 22.8246 18.9154 22.6695 18.6818C22.6138 18.5868 22.5582 18.4958 22.4985 18.4047L22.4667 18.3533L22.3195 18.1316L22.2718 18.0207L22.1406 17.8386L22.069 17.7436C21.9536 17.5931 21.8343 17.4467 21.7071 17.3041L21.6434 17.2289C21.5718 17.1458 21.4963 17.0666 21.4207 16.9874C21.1876 16.7339 20.9407 16.4934 20.681 16.2669L20.6094 16.2036C20.4543 16.0769 20.2952 15.9502 20.1321 15.8314L20.0765 15.7918L19.8498 15.6374L19.7464 15.5701C19.4958 15.4078 19.2413 15.2574 18.9788 15.1188L18.8276 15.0436C18.6288 14.9446 18.4299 14.8496 18.2231 14.7665L18.1714 14.7427L17.8254 14.6081H17.7896L17.5947 14.5408L17.4675 14.5012C17.2845 14.4419 17.0976 14.3864 16.9107 14.3389L16.8152 14.3152L16.4811 14.24H16.4493L16.1431 14.1845H16.0556C15.8528 14.1529 15.6579 14.1291 15.4431 14.1093H15.3676C15.113 14.0895 14.8585 14.0776 14.6 14.0776H14.1665H14.0392L13.721 14.1014H13.5938C13.4506 14.1014 13.3114 14.1331 13.1722 14.1568C13.1284 14.1568 13.0887 14.1568 13.0449 14.1806C12.7798 14.2228 12.5146 14.2782 12.2495 14.3468C12.1143 14.3825 11.9791 14.4181 11.8518 14.4616L11.7166 14.5052L11.4461 14.5963L11.291 14.6517L11.0405 14.7506L10.8893 14.814L10.6388 14.9288L10.4996 14.9921L10.2092 15.1426L10.1257 15.1861C10.0024 15.2534 9.87915 15.3207 9.75984 15.396L9.66041 15.4553L9.40587 15.6216C9.36192 15.6484 9.31943 15.6774 9.27861 15.7087L9.05589 15.8631C9.01178 15.8939 8.9693 15.9269 8.92862 15.9621L8.71783 16.1244L8.59454 16.2234L8.3758 16.4134L8.27637 16.5005C8.17695 16.5915 8.07354 16.6866 7.97411 16.7855L7.93434 16.8291C7.84685 16.9162 7.7673 16.9993 7.68378 17.0904L7.58833 17.1973L7.40936 17.4031L7.30596 17.5298L7.1429 17.7357L7.04347 17.8623C6.99177 17.9376 6.93609 18.0128 6.88439 18.092L6.80087 18.2068C6.73326 18.3057 6.66962 18.4087 6.60599 18.5116L6.57417 18.5631C6.50258 18.6818 6.431 18.8006 6.36339 18.9233L6.30373 19.0381L6.16851 19.2994L6.1009 19.4419C6.06113 19.5251 6.02533 19.6043 5.98954 19.6874C5.95374 19.7705 5.94579 19.7864 5.9259 19.8378C5.90602 19.8893 5.85829 20.0081 5.82648 20.0912C5.79466 20.1743 5.7867 20.1902 5.7708 20.2377C5.75489 20.2852 5.69921 20.4356 5.66739 20.5346L5.6316 20.6415C5.59183 20.7801 5.55206 20.9147 5.51626 21.0374L5.4924 21.1284C5.46456 21.2393 5.4407 21.3501 5.41683 21.461C5.41683 21.5085 5.39695 21.56 5.38899 21.6075C5.38104 21.655 5.3532 21.7975 5.33729 21.8886L5.31343 22.0548C5.31343 22.1459 5.28559 22.2369 5.27764 22.3319C5.26968 22.427 5.27764 22.4428 5.25775 22.4982L5.23389 22.7951C5.23389 22.8426 5.23389 22.8902 5.23389 22.9416C5.23389 23.0881 5.23389 23.2385 5.23389 23.385C5.23804 25.8569 6.22364 28.227 7.97585 29.9786C9.72806 31.7302 12.1048 32.7213 14.588 32.7359C14.8108 32.7359 15.0335 32.7359 15.2522 32.7122L15.5943 32.6845L15.7732 32.6607H15.805C16.1272 32.6172 16.4414 32.5618 16.7516 32.4905L17.0539 32.4153L17.3243 32.3361L17.5271 32.2728L17.6703 32.2252C17.7817 32.1896 17.889 32.15 17.9964 32.1065L18.1197 32.059L18.4578 31.9125L18.7083 31.7937L18.947 31.675H18.9748L19.3725 31.4493L19.4918 31.3741L19.7662 31.1999L19.9054 31.1049L20.148 30.9307L20.2912 30.8238L20.5179 30.6456L20.6531 30.5308L20.8759 30.3368L21.0031 30.222L21.2298 30.0003C21.2656 29.9647 21.3014 29.933 21.3332 29.8974C21.4406 29.7866 21.544 29.6757 21.6474 29.5609C22.386 28.7202 22.9679 27.7549 23.3655 26.7105C23.3973 26.6313 23.4212 26.5521 23.449 26.473C23.5541 26.1744 23.643 25.8704 23.7155 25.5624C23.7593 25.3763 23.799 25.1903 23.8308 25.0002C23.8627 24.8023 23.8945 24.6044 23.9144 24.4064H36.6411V14.2083L34.6526 16.3303L33.6304 17.419L32.3379 18.7887H33.6304V21.5045H25.9785V21.5125Z" fill="#635BFF"/>
</g>
<defs>
<clipPath id="clip0_17401_479">
<rect width="123" height="42" fill="white"/>
</clipPath>
</defs>
</svg>
