<svg width="20" height="20" viewBox="0 0 20 20" fill="none" xmlns="http://www.w3.org/2000/svg">
<path d="M15.625 8.0915V7.504C15.625 4.27984 13.105 1.6665 9.99999 1.6665C6.89499 1.6665 4.37499 4.27984 4.37499 7.504V8.0915C4.37599 8.7928 4.17586 9.47967 3.79832 10.0707L2.87499 11.5082C2.03249 12.8207 2.67582 14.6048 4.14166 15.0198C7.97175 16.1056 12.0282 16.1056 15.8583 15.0198C17.3242 14.6048 17.9675 12.8207 17.125 11.509L16.2017 10.0715C15.8238 9.48059 15.6234 8.79371 15.6242 8.09234L15.625 8.0915Z" stroke="#29343D" stroke-width="1.25"/>
<path opacity="0.5" d="M6.25 15.8333C6.79583 17.29 8.26833 18.3333 10 18.3333C11.7317 18.3333 13.2042 17.29 13.75 15.8333M10 5V8.33333" stroke="#29343D" stroke-width="1.25" stroke-linecap="round"/>
</svg>
