<svg width="20" height="20" viewBox="0 0 20 20" fill="none" xmlns="http://www.w3.org/2000/svg">
<path opacity="0.5" d="M2.08337 5.41683C2.08337 4.53277 2.43456 3.68493 3.05968 3.05981C3.68481 2.43469 4.53265 2.0835 5.41671 2.0835C6.30076 2.0835 7.14861 2.43469 7.77373 3.05981C8.39885 3.68493 8.75004 4.53277 8.75004 5.41683C8.75004 6.30088 8.39885 7.14873 7.77373 7.77385C7.14861 8.39897 6.30076 8.75016 5.41671 8.75016C4.53265 8.75016 3.68481 8.39897 3.05968 7.77385C2.43456 7.14873 2.08337 6.30088 2.08337 5.41683ZM11.25 14.5835C11.25 13.6994 11.6012 12.8516 12.2264 12.2265C12.8515 11.6014 13.6993 11.2502 14.5834 11.2502C15.4674 11.2502 16.3153 11.6014 16.9404 12.2265C17.5655 12.8516 17.9167 13.6994 17.9167 14.5835C17.9167 15.4676 17.5655 16.3154 16.9404 16.9405C16.3153 17.5656 15.4674 17.9168 14.5834 17.9168C13.6993 17.9168 12.8515 17.5656 12.2264 16.9405C11.6012 16.3154 11.25 15.4676 11.25 14.5835Z" stroke="#29343D" stroke-width="1.25"/>
<path d="M17.9167 5.41683C17.9167 4.53277 17.5655 3.68493 16.9404 3.05981C16.3153 2.43469 15.4674 2.0835 14.5834 2.0835C13.6993 2.0835 12.8515 2.43469 12.2264 3.05981C11.6012 3.68493 11.25 4.53277 11.25 5.41683C11.25 6.30088 11.6012 7.14873 12.2264 7.77385C12.8515 8.39897 13.6993 8.75016 14.5834 8.75016C15.4674 8.75016 16.3153 8.39897 16.9404 7.77385C17.5655 7.14873 17.9167 6.30088 17.9167 5.41683ZM8.75004 14.5835C8.75004 13.6994 8.39885 12.8516 7.77373 12.2265C7.14861 11.6014 6.30076 11.2502 5.41671 11.2502C4.53265 11.2502 3.68481 11.6014 3.05968 12.2265C2.43456 12.8516 2.08337 13.6994 2.08337 14.5835C2.08337 15.4676 2.43456 16.3154 3.05968 16.9405C3.68481 17.5656 4.53265 17.9168 5.41671 17.9168C6.30076 17.9168 7.14861 17.5656 7.77373 16.9405C8.39885 16.3154 8.75004 15.4676 8.75004 14.5835Z" stroke="#29343D" stroke-width="1.25"/>
</svg>
