<svg width="20" height="20" viewBox="0 0 20 20" fill="none" xmlns="http://www.w3.org/2000/svg">
<g clip-path="url(#clip0_17401_573)">
<path d="M14.8333 16.5142L13.0233 17.4626C12.9696 17.4905 12.9091 17.503 12.8488 17.4986C12.7884 17.4942 12.7304 17.4731 12.6813 17.4377C12.6322 17.4022 12.5939 17.3538 12.5707 17.2979C12.5475 17.242 12.5403 17.1807 12.55 17.1209L12.8958 15.1117L11.4316 13.6892C11.3879 13.647 11.357 13.5933 11.3423 13.5343C11.3277 13.4753 11.3299 13.4134 11.3488 13.3556C11.3676 13.2978 11.4023 13.2465 11.449 13.2075C11.4956 13.1685 11.5522 13.1434 11.6125 13.1351L13.6358 12.8417L14.5408 11.0142C14.5679 10.9598 14.6096 10.914 14.6612 10.882C14.7129 10.85 14.7725 10.833 14.8333 10.833C14.8941 10.833 14.9537 10.85 15.0053 10.882C15.057 10.914 15.0987 10.9598 15.1258 11.0142L16.0308 12.8417L18.0541 13.1351C18.1142 13.1437 18.1706 13.169 18.217 13.208C18.2634 13.247 18.298 13.2983 18.3168 13.3559C18.3356 13.4136 18.3379 13.4754 18.3235 13.5343C18.309 13.5932 18.2783 13.6468 18.235 13.6892L16.7708 15.1117L17.1158 17.1201C17.1261 17.18 17.1195 17.2415 17.0966 17.2978C17.0737 17.3541 17.0355 17.4029 16.9863 17.4386C16.9371 17.4742 16.8788 17.4954 16.8182 17.4996C16.7576 17.5039 16.697 17.491 16.6433 17.4626L14.8333 16.5142Z" stroke="#98A4AE" stroke-width="1.5" stroke-linecap="round" stroke-linejoin="round"/>
<path d="M5.16666 16.5142L3.35666 17.4626C3.30295 17.4905 3.24252 17.503 3.18213 17.4986C3.12173 17.4942 3.06375 17.4731 3.01465 17.4377C2.96556 17.4022 2.92727 17.3538 2.90408 17.2979C2.88089 17.242 2.87371 17.1807 2.88333 17.1209L3.22916 15.1117L1.76499 13.6892C1.72129 13.647 1.69035 13.5933 1.6757 13.5343C1.66104 13.4753 1.66327 13.4134 1.68213 13.3556C1.70099 13.2978 1.73571 13.2465 1.78234 13.2075C1.82897 13.1685 1.88562 13.1434 1.94583 13.1351L3.96916 12.8417L4.87416 11.0142C4.90123 10.9598 4.94294 10.914 4.99462 10.882C5.04629 10.85 5.10587 10.833 5.16666 10.833C5.22745 10.833 5.28703 10.85 5.33871 10.882C5.39038 10.914 5.4321 10.9598 5.45916 11.0142L6.36416 12.8417L8.38749 13.1351C8.44753 13.1437 8.50395 13.169 8.55037 13.208C8.59679 13.247 8.63137 13.2983 8.65018 13.3559C8.669 13.4136 8.6713 13.4754 8.65684 13.5343C8.64237 13.5932 8.61171 13.6468 8.56833 13.6892L7.10416 15.1117L7.44916 17.1201C7.45952 17.18 7.45287 17.2415 7.42998 17.2978C7.40708 17.3541 7.36886 17.4029 7.31965 17.4386C7.27044 17.4742 7.21222 17.4954 7.15159 17.4996C7.09096 17.5039 7.03036 17.491 6.97666 17.4626L5.16666 16.5142Z" stroke="#98A4AE" stroke-width="1.5" stroke-linecap="round" stroke-linejoin="round"/>
<path d="M10 8.18073L8.19004 9.12906C8.13632 9.15702 8.0759 9.1695 8.0155 9.1651C7.95511 9.1607 7.89713 9.13961 7.84803 9.10417C7.79893 9.06873 7.76065 9.02034 7.73746 8.9644C7.71427 8.90846 7.70708 8.84718 7.7167 8.7874L8.06254 6.77823L6.59837 5.35573C6.55467 5.31348 6.52372 5.2598 6.50907 5.20081C6.49442 5.14181 6.49665 5.07989 6.5155 5.0221C6.53436 4.96432 6.56908 4.913 6.61571 4.874C6.66234 4.83501 6.71899 4.8099 6.7792 4.80156L8.80254 4.50823L9.70754 2.68073C9.7346 2.6263 9.77632 2.5805 9.82799 2.54849C9.87967 2.51647 9.93925 2.49951 10 2.49951C10.0608 2.49951 10.1204 2.51647 10.1721 2.54849C10.2238 2.5805 10.2655 2.6263 10.2925 2.68073L11.1975 4.50823L13.2209 4.80156C13.2809 4.8102 13.3373 4.83546 13.3837 4.8745C13.4302 4.91353 13.4647 4.96477 13.4836 5.02243C13.5024 5.08009 13.5047 5.14187 13.4902 5.20077C13.4757 5.25967 13.4451 5.31335 13.4017 5.35573L11.9375 6.77823L12.2825 8.78656C12.2929 8.84645 12.2862 8.90805 12.2634 8.96435C12.2405 9.02065 12.2022 9.0694 12.153 9.10507C12.1038 9.14074 12.0456 9.1619 11.985 9.16614C11.9243 9.17038 11.8637 9.15754 11.81 9.12906L10 8.18073Z" stroke="#98A4AE" stroke-width="1.5" stroke-linecap="round" stroke-linejoin="round"/>
</g>
<defs>
<clipPath id="clip0_17401_573">
<rect width="20" height="20" fill="white"/>
</clipPath>
</defs>
</svg>
