<svg width="20" height="20" viewBox="0 0 20 20" fill="none" xmlns="http://www.w3.org/2000/svg">
<g clip-path="url(#clip0_17401_596)">
<path d="M5.83337 7.49984C5.83337 8.38389 6.18456 9.23174 6.80968 9.85686C7.43481 10.482 8.28265 10.8332 9.16671 10.8332C10.0508 10.8332 10.8986 10.482 11.5237 9.85686C12.1489 9.23174 12.5 8.38389 12.5 7.49984C12.5 6.61578 12.1489 5.76794 11.5237 5.14281C10.8986 4.51769 10.0508 4.1665 9.16671 4.1665C8.28265 4.1665 7.43481 4.51769 6.80968 5.14281C6.18456 5.76794 5.83337 6.61578 5.83337 7.49984Z" stroke="#98A4AE" stroke-width="1.5" stroke-linecap="round" stroke-linejoin="round"/>
<path d="M4.79163 12.4998C5.4949 13.1107 6.31819 13.5677 7.20858 13.8415C8.09898 14.1152 9.03679 14.1997 9.96178 14.0895C10.8868 13.9793 11.7785 13.6768 12.5796 13.2015C13.3808 12.7262 14.0736 12.0886 14.6137 11.3296C15.1537 10.5706 15.5291 9.70697 15.7155 8.79429C15.902 7.88161 15.8955 6.94002 15.6964 6.03C15.4974 5.11998 15.1102 4.26167 14.5597 3.5102C14.0092 2.75872 13.3076 2.13071 12.5 1.6665" stroke="#98A4AE" stroke-width="1.5" stroke-linecap="round" stroke-linejoin="round"/>
<path d="M9.16663 14.1665V17.4998" stroke="#98A4AE" stroke-width="1.5" stroke-linecap="round" stroke-linejoin="round"/>
<path d="M5.83337 17.5H12.5" stroke="#98A4AE" stroke-width="1.5" stroke-linecap="round" stroke-linejoin="round"/>
</g>
<defs>
<clipPath id="clip0_17401_596">
<rect width="20" height="20" fill="white"/>
</clipPath>
</defs>
</svg>
